<svg xmlns="http://www.w3.org/2000/svg" width="25.088" height="28.672" viewBox="0 0 25.088 28.672">
  <g id="pdf-placeholder-new.20a57c59" transform="translate(-32)">
    <path id="Path_14231" data-name="Path 14231" d="M97.792,0A1.8,1.8,0,0,0,96,1.792V26.88a1.8,1.8,0,0,0,1.792,1.792h17.92A1.8,1.8,0,0,0,117.5,26.88V7.168L110.336,0Z" transform="translate(-60.416)" fill="#e2e5e7"/>
    <path id="Path_14232" data-name="Path 14232" d="M353.792,7.168h5.376L352,0V5.376A1.8,1.8,0,0,0,353.792,7.168Z" transform="translate(-302.08)" fill="#b0b7bd"/>
    <path id="Path_14233" data-name="Path 14233" d="M389.376,133.376,384,128h5.376Z" transform="translate(-332.288 -120.832)" fill="#cad1d8"/>
    <path id="Path_14234" data-name="Path 14234" d="M53.5,249.856a.9.9,0,0,1-.9.9H32.9a.9.9,0,0,1-.9-.9V240.9a.9.9,0,0,1,.9-.9H52.608a.9.9,0,0,1,.9.9Z" transform="translate(0 -226.56)" fill="#f15642"/>
    <g id="Group_3664" data-name="Group 3664" transform="translate(35.906 16.482)">
      <path id="Path_14235" data-name="Path 14235" d="M101.744,294.815a.493.493,0,0,1,.487-.495h1.655a1.791,1.791,0,0,1,0,3.582h-1.2v.946a.45.45,0,0,1-.459.494.483.483,0,0,1-.487-.494Zm.945.408v1.785h1.2a.893.893,0,0,0,0-1.785Z" transform="translate(-101.744 -294.32)" fill="#fff"/>
      <path id="Path_14236" data-name="Path 14236" d="M188.319,300.43a.448.448,0,0,1-.495-.444v-4.07a.487.487,0,0,1,.495-.444h1.641c3.274,0,3.2,4.958.064,4.958Zm.452-4.083v3.21h1.189c1.934,0,2.021-3.21,0-3.21Z" transform="translate(-183.003 -295.407)" fill="#fff"/>
      <path id="Path_14237" data-name="Path 14237" d="M288.073,296.389v1.139H289.9a.554.554,0,0,1,.516.508.5.5,0,0,1-.516.43h-1.827v1.5a.424.424,0,0,1-.429.444.455.455,0,0,1-.508-.444V295.9a.453.453,0,0,1,.508-.444h2.515a.447.447,0,0,1,.5.444.5.5,0,0,1-.5.487h-2.086Z" transform="translate(-276.754 -295.392)" fill="#fff"/>
    </g>
    <path id="Path_14238" data-name="Path 14238" d="M113.024,416.9H96v.9h17.024a.9.9,0,0,0,.9-.9V416A.9.9,0,0,1,113.024,416.9Z" transform="translate(-60.416 -392.704)" fill="#cad1d8"/>
  </g>
</svg>
